PathFileType	4	(X/Y/Z)	/Users/itak/Documents/Research/Walk-IL/dataset/trc/00465_00167.trc
DataRate	CameraRate	NumFrames	NumMarkers	Units	OrigDataRate	OrigDataStartFrame	OrigNumFrames
100.000000	100.000000	4	53	mm	100.000000	595	681
Frame#	Time	RPSI			LPSI			L3			STRN			T10			C7			CLAV			RBAK			LBAK			LSHO			LUPA			LAEL			LAOL			LWTS			LWPS			LFRA			LIFD			LHPS			LHTS			RSHO			RUPA			RAEL			RAOL			RWTS			RWPS			RFRA			RIFD			RHTS			RHPS			RBHD			LFHD			RFHD			LBHD			LHIP			RHIP			RASI			LASI			LKNE			LTHI			LANK			LTIP			LTOE			LMT1			LMT5			LHEE			RKNE			RTHI			RANK			RTIP			RTOE			RMT1			RMT5			RHEE			
		X1	Y1	Z1	X2	Y2	Z2	X3	Y3	Z3	X4	Y4	Z4	X5	Y5	Z5	X6	Y6	Z6	X7	Y7	Z7	X8	Y8	Z8	X9	Y9	Z9	X10	Y10	Z10	X11	Y11	Z11	X12	Y12	Z12	X13	Y13	Z13	X14	Y14	Z14	X15	Y15	Z15	X16	Y16	Z16	X17	Y17	Z17	X18	Y18	Z18	X19	Y19	Z19	X20	Y20	Z20	X21	Y21	Z21	X22	Y22	Z22	X23	Y23	Z23	X24	Y24	Z24	X25	Y25	Z25	X26	Y26	Z26	X27	Y27	Z27	X28	Y28	Z28	X29	Y29	Z29	X30	Y30	Z30	X31	Y31	Z31	X32	Y32	Z32	X33	Y33	Z33	X34	Y34	Z34	X35	Y35	Z35	X36	Y36	Z36	X37	Y37	Z37	X38	Y38	Z38	X39	Y39	Z39	X40	Y40	Z40	X41	Y41	Z41	X42	Y42	Z42	X43	Y43	Z43	X44	Y44	Z44	X45	Y45	Z45	X46	Y46	Z46	X47	Y47	Z47	X48	Y48	Z48	X49	Y49	Z49	X50	Y50	Z50	X51	Y51	Z51	X52	Y52	Z52	X53	Y53	Z53	

596	5.95	-555.566162109375	969.5200805664062	-361.5247497558594	-574.2020263671875	968.1765747070312	-219.2654113769531	-582.7750854492188	1064.574951171875	-312.5906372070312	-850.1614990234375	1256.751831054688	-341.7412719726562	-568.1529541015625	1188.938842773438	-312.0811462402344	-630.6536254882812	1458.279296875	-333.1986999511719	-815.5193481445312	1370.203002929688	-336.4842529296875	-561.7218017578125	1334.522094726562	-421.7463684082031	-606.5880737304688	1410.051635742188	-229.4546813964844	-717.2570190429688	1427.738647460938	-161.8763885498047	-723.0097045898438	1306.834716796875	-66.31963348388672	-764.78369140625	1092.120239257812	-45.37016677856445	-677.955322265625	1069.942749023438	-98.78643798828125	-874.0206298828125	914.3877563476562	-119.9808578491211	-838.6139526367188	888.9136352539062	-57.36021041870117	-801.8428955078125	1009.088317871094	-46.86135101318359	-918.907470703125	763.77978515625	-105.8213119506836	-865.504638671875	819.5385131835938	-56.406494140625	-910.5118408203125	838.4943237304688	-110.4933395385742	-683.1707763671875	1429.53515625	-496.2852172851562	-660.3447265625	1371.888549804688	-572.8330078125	-692.6307983398438	1090.4609375	-647.9730834960938	-648.5614624023438	1058.91455078125	-607.1939697265625	-857.9833984375	933.734130859375	-612.3877563476562	-798.6598510742188	895.6138916015625	-665.6680297851562	-713.3792114257812	1035.656982421875	-659.2323608398438	-923.4046020507812	794.2473754882812	-634.0931396484375	-909.807373046875	853.2489013671875	-631.85302734375	-847.1837158203125	823.451171875	-669.5162353515625	-723.48388671875	1654.077392578125	-430.835693359375	-859.93359375	1662.102416992188	-275.3372497558594	-859.3579711914062	1661.582641601562	-406.6583251953125	-708.8505249023438	1660.905029296875	-254.0422821044922	-728.693359375	868.783447265625	-117.6501235961914	-652.360595703125	858.3005981445312	-508.9213562011719	-765.2820434570312	899.32421875	-464.0399780273438	-809.0811157226562	907.4229736328125	-211.0645904541016	-809.5360107421875	454.9553527832031	-148.2885437011719	-808.0481567382812	608.0817260742188	-132.6557769775391	-727.4966430664062	43.41035842895508	-116.0573348999023	-800.2638549804688	303.4703369140625	-125.0352783203125	-949.7426147460938	55.35946273803711	-213.6278076171875	-869.9892578125	56.5173225402832	-233.9267578125	-879.4055786132812	53.91367721557617	-121.9549331665039	-675.2620849609375	45.51663208007812	-174.409423828125	-694.6943969726562	466.2183532714844	-469.4912414550781	-697.347412109375	726.1200561523438	-516.5279541015625	-675.9608764648438	43.80542373657227	-453.1398010253906	-706.0975952148438	324.5278015136719	-473.0050964355469	-885.7760009765625	47.34307479858398	-385.8385925292969	-818.606201171875	48.745849609375	-358.5068969726562	-811.722412109375	48.35198974609375	-465.5784606933594	-606.5751953125	37.69099426269531	-411.4526062011719	
597	5.96	-558.4412231445312	969.428466796875	-359.628173828125	-577.4197998046875	967.1567993164062	-217.3923034667969	-585.6444702148438	1063.661499023438	-310.2955017089844	-852.4929809570312	1256.214599609375	-340.2934875488281	-570.8773803710938	1188.083862304688	-309.5109252929688	-632.6338500976562	1457.678833007812	-330.9249877929688	-817.70458984375	1369.659423828125	-334.9781799316406	-563.2327270507812	1333.757934570312	-419.0691528320312	-609.1282348632812	1409.244873046875	-227.0687713623047	-720.0231323242188	1426.886108398438	-159.8003234863281	-725.9908447265625	1305.523681640625	-64.60691833496094	-766.7833862304688	1090.388671875	-44.51289367675781	-679.7365112304688	1069.17919921875	-98.09107208251953	-872.904541015625	910.4544067382812	-118.3803100585938	-836.777099609375	885.8572998046875	-55.63010406494141	-802.3955078125	1006.719421386719	-45.77946853637695	-914.6095581054688	758.9044189453125	-103.3551559448242	-862.291015625	815.9669799804688	-54.29973602294922	-907.776611328125	833.7166748046875	-108.3327331542969	-684.607666015625	1428.626220703125	-494.4483947753906	-661.3030395507812	1370.6103515625	-570.6583251953125	-693.0589599609375	1088.567749023438	-644.7252807617188	-648.7591552734375	1057.759521484375	-603.6516723632812	-855.97216796875	929.2050170898438	-608.73193359375	-796.163818359375	892.006103515625	-662.0841064453125	-712.9422607421875	1033.443481445312	-655.876953125	-918.8984985351562	788.420654296875	-629.349609375	-906.3741455078125	847.6846313476562	-627.4430541992188	-843.4845581054688	818.8335571289062	-665.2616577148438	-724.6947021484375	1653.717529296875	-428.9139709472656	-861.3123168945312	1662.193969726562	-273.5209350585938	-860.5968627929688	1661.666381835938	-404.8215942382812	-710.1748657226562	1660.398193359375	-252.0607299804688	-731.248046875	867.1339721679688	-116.4506759643555	-654.73974609375	858.7689819335938	-507.8422241210938	-768.2236328125	899.2158203125	-463.1995544433594	-812.2681274414062	905.7354736328125	-209.8324890136719	-809.4147338867188	453.4663696289062	-147.1918487548828	-807.9721069335938	606.0755004882812	-131.0659942626953	-728.1765747070312	42.99867248535156	-116.082633972168	-800.8015747070312	302.1523742675781	-124.5250549316406	-951.0436401367188	51.47492599487305	-213.2237243652344	-871.3369750976562	53.78341293334961	-233.6677398681641	-880.6085205078125	51.54746627807617	-121.3681945800781	-676.0348510742188	45.43041229248047	-174.4904937744141	-695.4345703125	466.294921875	-469.0914306640625	-698.9530639648438	726.1802368164062	-516.1670532226562	-675.9255981445312	43.77744293212891	-453.1913452148438	-706.50390625	324.6408386230469	-472.8839111328125	-885.7272338867188	47.32314300537109	-385.8077087402344	-818.5926513671875	48.82765579223633	-358.5429077148438	-811.6921997070312	48.30075073242188	-465.6480102539062	-606.55419921875	37.70223617553711	-411.4710693359375	
598	5.97	-561.2549438476562	969.3663940429688	-357.8121643066406	-580.5071411132812	966.3109130859375	-215.5885772705078	-588.412109375	1062.886352539062	-308.0730895996094	-854.8255004882812	1255.736083984375	-338.777587890625	-573.56494140625	1187.385986328125	-306.9547119140625	-634.6652221679688	1457.213623046875	-328.6426696777344	-819.9038696289062	1369.176635742188	-333.4123840332031	-564.70751953125	1333.13720703125	-416.3592834472656	-611.682861328125	1408.574096679688	-224.6717224121094	-722.804931640625	1426.10693359375	-157.6889038085938	-728.97412109375	1304.264526367188	-62.85879898071289	-768.7749633789062	1088.751098632812	-43.52145767211914	-681.519775390625	1068.463623046875	-97.25691986083984	-871.4818115234375	906.5935668945312	-116.43310546875	-834.8533325195312	882.9563598632812	-53.69489288330078	-802.9041137695312	1004.473754882812	-44.52086639404297	-910.0991821289062	754.1878051757812	-100.6669921875	-858.9157104492188	812.5574951171875	-51.98085403442383	-904.8630981445312	829.0659790039062	-105.9611282348633	-686.1253662109375	1427.730224609375	-492.6341552734375	-662.3665161132812	1369.257080078125	-568.4537963867188	-693.53466796875	1086.62890625	-641.3458862304688	-649.0225830078125	1056.588134765625	-599.957763671875	-853.7116088867188	924.4304809570312	-605.0338134765625	-793.353515625	888.2932739257812	-658.4917602539062	-712.467529296875	1031.187744140625	-652.42236328125	-913.8983764648438	782.3330688476562	-624.65283203125	-902.5300903320312	841.852294921875	-623.0528564453125	-839.3651123046875	814.0615844726562	-661.0570678710938	-725.973876953125	1653.443237304688	-426.9614562988281	-862.7515258789062	1662.411010742188	-271.6765747070312	-861.8984985351562	1661.846069335938	-402.9440307617188	-711.5416259765625	1660.020385742188	-250.0662231445312	-733.676513671875	865.8406372070312	-115.1777801513672	-657.1536865234375	859.1976928710938	-506.7374267578125	-771.1214599609375	899.1419677734375	-462.2763671875	-815.4955444335938	904.2735595703125	-208.6643371582031	-809.1804809570312	452.2987670898438	-146.1097869873047	-807.8535766601562	604.4095458984375	-129.3819580078125	-728.4617309570312	42.80558776855469	-116.1798858642578	-801.048095703125	301.1387023925781	-124.0118179321289	-951.86328125	48.39441680908203	-212.9625854492188	-872.1710815429688	51.6746711730957	-233.5095825195312	-881.3400268554688	49.76459884643555	-120.928092956543	-676.3843994140625	45.43722534179688	-174.6272430419922	-696.2286987304688	466.4013671875	-468.6359558105469	-700.6995239257812	726.2255859375	-515.7078247070312	-675.8983764648438	43.766357421875	-453.2326965332031	-706.9303588867188	324.7781982421875	-472.7091979980469	-885.676513671875	47.30483627319336	-385.7783813476562	-818.5798950195312	48.90082550048828	-358.5735473632812	-811.6690063476562	48.25749588012695	-465.7015991210938	-606.5410766601562	37.73312377929688	-411.4958801269531	
599	5.98	-563.992919921875	969.3624877929688	-356.1463012695312	-583.4503784179688	965.7412719726562	-213.9373931884766	-591.0613403320312	1062.31201171875	-305.9922180175781	-857.1575927734375	1255.382080078125	-337.2086181640625	-576.2061157226562	1186.901245117188	-304.4615783691406	-636.7484741210938	1456.915405273438	-326.3721923828125	-822.1100463867188	1368.811645507812	-331.7939758300781	-566.1716918945312	1332.71630859375	-413.6528930664062	-614.2432250976562	1408.089111328125	-222.2799530029297	-725.5924682617188	1425.454467773438	-155.5601959228516	-731.9421997070312	1303.130615234375	-61.09111022949219	-770.74755859375	1087.284790039062	-42.40977096557617	-683.2946166992188	1067.8662109375	-96.28691101074219	-869.7844848632812	902.869873046875	-114.1632766723633	-832.8579711914062	880.285888671875	-51.55160522460938	-803.3671875	1002.431640625	-43.08519744873047	-905.3842163085938	749.7119140625	-97.76610565185547	-855.3910522460938	809.3831176757812	-49.45698547363281	-901.7725830078125	824.625244140625	-103.3941802978516	-687.7354125976562	1426.902709960938	-490.8556213378906	-663.5578002929688	1367.888427734375	-566.2366333007812	-694.0836791992188	1084.7216796875	-637.83642578125	-649.3704223632812	1055.479125976562	-596.1170043945312	-851.1898193359375	919.4785766601562	-601.3033447265625	-790.213623046875	884.5443115234375	-654.8820190429688	-711.9771118164062	1028.96923828125	-648.8638916015625	-908.3680419921875	776.065185546875	-620.063232421875	-898.2463989257812	835.8252563476562	-618.7297973632812	-834.7700805664062	809.2198486328125	-656.9224853515625	-727.3436889648438	1653.278930664062	-424.9873657226562	-864.2565307617188	1662.764770507812	-269.8031921386719	-863.2792358398438	1662.1396484375	-401.0270080566406	-712.966552734375	1659.798461914062	-248.0698699951172	-735.9847412109375	865.0083618164062	-113.8816375732422	-659.5967407226562	859.580322265625	-505.6322937011719	-773.9463500976562	899.1221923828125	-461.2787780761719	-818.6915893554688	903.1788330078125	-207.5449371337891	-808.8184814453125	451.5091247558594	-145.0515289306641	-807.7766723632812	603.2061767578125	-127.7171020507812	-728.5023193359375	42.75229263305664	-116.2983551025391	-801.0360717773438	300.4694519042969	-123.4680862426758	-952.3139038085938	46.21440887451172	-212.8270416259766	-872.6097412109375	50.22977447509766	-233.4305572509766	-881.7208862304688	48.56097030639648	-120.633430480957	-676.4609985351562	45.49046325683594	-174.766357421875	-697.1046752929688	466.5389404296875	-468.1000366210938	-702.5579833984375	726.264892578125	-515.1499633789062	-675.8857421875	43.78113174438477	-453.2487182617188	-707.4110717773438	324.9413757324219	-472.4528198242188	-885.6326293945312	47.28784561157227	-385.7459106445312	-818.57275390625	48.95790481567383	-358.5920104980469	-811.659912109375	48.22917556762695	-465.7269897460938	-606.5419921875	37.7924919128418	-411.5147399902344	
